<svg width="5640" height="4320" viewBox="0 0 5640 4320" fill="none" xmlns="http://www.w3.org/2000/svg">
<rect x="0.5" y="3960.5" width="719" height="359" fill="#E8BB73" stroke="#715600"/>
<rect x="0.5" y="3480.5" width="539" height="359" fill="#E8BB73" stroke="#715600"/>
<rect x="540.5" y="3480.5" width="179" height="359" fill="#E8BB73" stroke="#715600"/>
<rect x="1260.5" y="3480.5" width="539" height="359" fill="#E8BB73" stroke="#715600"/>
<rect x="1800.5" y="3480.5" width="175" height="359" fill="#E8BB73" stroke="#715600"/>
<rect x="1976.5" y="3480.5" width="727" height="359" fill="#E8BB73" stroke="#715600"/>
<rect x="2704.5" y="3480.5" width="175" height="359" fill="#E8BB73" stroke="#715600"/>
<rect y="3840" width="3060" height="120" fill="#FFCD7D"/>
<rect y="3840" width="3060" height="120" fill="#FFCD7D"/>
<rect y="3840" width="3060" height="120" fill="#D6FF83"/>
<rect width="60" height="120" transform="matrix(-1 0 0 1 3120 3840)" fill="#FFCD7D"/>
<rect width="60" height="120" transform="matrix(-1 0 0 1 3120 3840)" fill="#FFCD7D"/>
<rect width="60" height="120" transform="matrix(-1 0 0 1 3120 3840)" fill="#D6FF83"/>
<rect x="3120" y="3480" width="450" height="840" fill="#FB00FF"/>
<rect x="720.5" y="3480.5" width="179" height="359" fill="#ABABAB" stroke="#715600"/>
<rect x="1080.5" y="3480.5" width="179" height="359" fill="#E8BB73" stroke="#715600"/>
<rect x="2880" y="3480" width="180" height="360" fill="#FFCD7D"/>
<rect x="2880" y="3480" width="180" height="360" fill="#FFCD7D"/>
<rect x="2880" y="3480" width="180" height="360" fill="#8AE7A7"/>
<rect x="2880" y="3960" width="180" height="360" fill="#DAFF90"/>
<rect x="900" y="3480" width="180" height="360" fill="#98FFB8"/>
<rect x="720.5" y="3960.5" width="179" height="359" fill="#E8BB73" stroke="#715600"/>
<rect x="1080.5" y="3960.5" width="419" height="359" fill="#E8BB73" stroke="#715600"/>
<rect x="1500.5" y="3960.5" width="119" height="359" fill="#E8BB73" stroke="#715600"/>
<rect x="1620.5" y="3960.5" width="179" height="359" fill="#E8BB73" stroke="#715600"/>
<rect x="1800.5" y="3960.5" width="539" height="359" fill="#E8BB73" stroke="#715600"/>
<rect x="2340.5" y="3960.5" width="539" height="359" fill="#E8BB73" stroke="#715600"/>
<rect x="900" y="3960" width="180" height="360" fill="#DAFF90"/>
<rect x="0.5" y="2100.5" width="719" height="359" fill="#E8BB73" stroke="#715600"/>
<rect x="0.5" y="1620.5" width="539" height="359" fill="#E8BB73" stroke="#715600"/>
<rect x="540.5" y="1620.5" width="179" height="359" fill="#E8BB73" stroke="#715600"/>
<rect x="1260.5" y="1620.5" width="539" height="359" fill="#E8BB73" stroke="#715600"/>
<rect x="1800.5" y="1620.5" width="175" height="359" fill="#E8BB73" stroke="#715600"/>
<rect x="1976.5" y="1620.5" width="727" height="359" fill="#E8BB73" stroke="#715600"/>
<rect x="2704.5" y="1620.5" width="175" height="359" fill="#E8BB73" stroke="#715600"/>
<rect y="1980" width="3060" height="120" fill="#FFCD7D"/>
<rect y="1980" width="3060" height="120" fill="#FFCD7D"/>
<rect y="1980" width="3060" height="120" fill="#D6FF83"/>
<rect x="720.5" y="1620.5" width="179" height="359" fill="#ABABAB" stroke="#715600"/>
<rect x="1080.5" y="1620.5" width="179" height="359" fill="#E8BB73" stroke="#715600"/>
<rect x="2880" y="1620" width="180" height="360" fill="#FFCD7D"/>
<rect x="2880" y="1620" width="180" height="360" fill="#FFCD7D"/>
<rect x="2880" y="1620" width="180" height="360" fill="#8AE7A7"/>
<rect x="2880" y="2100" width="180" height="360" fill="#DAFF90"/>
<rect x="900" y="1620" width="180" height="360" fill="#98FFB8"/>
<rect x="720.5" y="2100.5" width="179" height="359" fill="#E8BB73" stroke="#715600"/>
<rect x="1080.5" y="2100.5" width="419" height="359" fill="#E8BB73" stroke="#715600"/>
<rect x="1500.5" y="2100.5" width="119" height="359" fill="#E8BB73" stroke="#715600"/>
<rect x="1620.5" y="2100.5" width="179" height="359" fill="#E8BB73" stroke="#715600"/>
<rect x="1800.5" y="2100.5" width="539" height="359" fill="#E8BB73" stroke="#715600"/>
<rect x="2340.5" y="2100.5" width="539" height="359" fill="#E8BB73" stroke="#715600"/>
<rect x="900" y="2100" width="180" height="360" fill="#DAFF90"/>
<rect x="0.5" y="120.5" width="539" height="359" fill="#E8BB73" stroke="#715600"/>
<rect width="3060" height="120" fill="#FFCD7D"/>
<rect width="3060" height="120" fill="#FFCD7D"/>
<rect width="3060" height="120" fill="#D6FF83"/>
<rect x="540.5" y="120.5" width="179" height="359" fill="#E8BB73" stroke="#715600"/>
<rect x="1080.5" y="120.5" width="359" height="359" fill="#E8BB73" stroke="#715600"/>
<rect x="1440.5" y="120.5" width="359" height="359" fill="#E8BB73" stroke="#715600"/>
<rect x="1800.5" y="120.5" width="359" height="359" fill="#E8BB73" stroke="#715600"/>
<rect x="2160.5" y="120.5" width="359" height="359" fill="#E8BB73" stroke="#715600"/>
<rect x="2520.5" y="120.5" width="359" height="359" fill="#E8BB73" stroke="#715600"/>
<rect x="720.5" y="120.5" width="179" height="359" fill="#FFCD7D"/>
<rect x="720.5" y="120.5" width="179" height="359" fill="#FFCD7D"/>
<rect x="720.5" y="120.5" width="179" height="359" fill="#ABABAB"/>
<rect x="720.5" y="120.5" width="179" height="359" stroke="#715600"/>
<rect x="2880" y="120" width="180" height="360" fill="#FFCD7D"/>
<rect x="2880" y="120" width="180" height="360" fill="#FFCD7D"/>
<rect x="2880" y="120" width="180" height="360" fill="#8AE7A7"/>
<rect x="900" y="120" width="180" height="360" fill="#FFCD7D"/>
<rect x="900" y="120" width="180" height="360" fill="#FFCD7D"/>
<rect x="900" y="120" width="180" height="360" fill="#98FFB8"/>
<rect x="3060.5" y="120.5" width="179" height="359" fill="#E8BB73" stroke="#715600"/>
<path d="M3599.5 0.5V479.5H3240.5V119.5H3060.5V0.5H3599.5Z" fill="#E8BB73" stroke="#715600"/>
<rect x="0.5" y="-0.5" width="1619" height="1319" transform="matrix(1 0 0 -1 4020 2099)" fill="#FB00FF" stroke="#715600"/>
<rect x="900" y="480" width="180" height="1140" fill="#90D8FF"/>
<rect x="2880" y="480" width="180" height="1140" fill="#90D8FF"/>
<rect x="900" y="2460" width="180" height="1020" fill="#90D8FF"/>
<rect x="2880" y="2460" width="180" height="1020" fill="#90D8FF"/>
<rect x="3060" y="2100" width="1440" height="120" fill="#90D8FF"/>
</svg>
